<?xml version="1.0" encoding="UTF-8"?><svg xmlns="http://www.w3.org/2000/svg" viewBox="0 0 826 442"><defs><style>.d{fill:#8a2786;}.e{fill:#4d4d4d;}.f{stroke:#231815;stroke-width:2px;}.f,.g{fill:none;stroke-miterlimit:10;}.g{stroke:#000;}</style></defs><g id="a"/><g id="b"/><g id="c"><g><g><path d="M17.31,13.79v1h-7.12c-.05,.48-.14,.95-.22,1.38h7.1v1h-7.39c-.8,2.38-2.62,3.84-7.09,4.61-.08-.27-.37-.76-.58-1,4.01-.6,5.68-1.73,6.44-3.6H2.64v-1h6.14c.1-.42,.19-.88,.24-1.38H2.25v-1h6.88v-1.55H3.79v-.99h5.34v-1.46H2.89v-1.04h3.62c-.29-.61-.85-1.43-1.36-2.06l.99-.41c.61,.66,1.22,1.56,1.5,2.18l-.59,.29h4.59c.53-.71,1.16-1.73,1.53-2.46l1.12,.39c-.42,.71-.94,1.46-1.39,2.07h3.69v1.04h-6.31v1.46h5.47v.99h-5.47v1.55h7.04Zm-6.99,3.65c2.36,.92,5.41,2.41,6.97,3.48l-.54,.97c-1.5-1.11-4.54-2.65-6.94-3.64l.51-.82Z"/><path d="M32.47,20.47c.71,0,.82-.46,.9-3.09,.27,.22,.73,.41,1.05,.51-.14,2.87-.44,3.64-1.87,3.64h-2.52c-1.44,0-1.85-.37-1.85-1.75v-6.2h-3.3c-.32,3.67-1.16,6.66-5.03,8.23-.14-.25-.46-.68-.71-.87,3.64-1.38,4.28-4.11,4.54-7.36h-4.39v-1.1h14.87v1.1h-4.83v6.2c0,.56,.14,.7,.82,.7h2.31Zm.29-11.68h-11.98v-1.09h11.98v1.09Z"/><path d="M40.67,7.09h1.02l-5.25,16.49h-1.02l5.25-16.49Z"/><path d="M43.63,8.12h3.6c2.53,0,4.25,.88,4.25,3.04,0,1.24-.66,2.31-1.85,2.7v.07c1.53,.29,2.58,1.29,2.58,2.99,0,2.43-1.92,3.64-4.71,3.64h-3.88V8.12Zm3.32,5.34c2.24,0,3.14-.82,3.14-2.12,0-1.53-1.04-2.09-3.06-2.09h-1.99v4.22h1.9Zm.34,5.98c2.21,0,3.55-.8,3.55-2.57,0-1.6-1.29-2.33-3.55-2.33h-2.24v4.9h2.24Z"/><path d="M54.32,8.44c0-.56,.39-.93,.97-.93,.54,0,.95,.37,.95,.93,0,.6-.41,.97-.95,.97-.58,0-.97-.37-.97-.97Zm.27,2.94h1.38v9.18h-1.38V11.38Z"/><path d="M59.16,18.88V7.03h1.38v11.95c0,.46,.19,.65,.42,.65,.08,0,.15,0,.32-.03l.2,1.07c-.22,.07-.44,.12-.83,.12-1.05,0-1.5-.68-1.5-1.9Z"/><path d="M63.91,18.88V7.03h1.38v11.95c0,.46,.19,.65,.43,.65,.08,0,.15,0,.32-.03l.2,1.07c-.22,.07-.44,.12-.83,.12-1.05,0-1.5-.68-1.5-1.9Z"/><path d="M68.38,8.44c0-.56,.39-.93,.97-.93,.54,0,.95,.37,.95,.93,0,.6-.41,.97-.95,.97-.58,0-.97-.37-.97-.97Zm.27,2.94h1.38v9.18h-1.38V11.38Z"/><path d="M72.51,15.97c0-3.06,1.97-4.83,4.21-4.83s4.23,1.77,4.23,4.83-1.99,4.81-4.23,4.81-4.21-1.77-4.21-4.81Zm7.02,0c0-2.18-1.16-3.66-2.8-3.66s-2.79,1.48-2.79,3.66,1.14,3.65,2.79,3.65,2.8-1.46,2.8-3.65Z"/><path d="M83.46,11.38h1.12l.14,1.34h.05c.88-.87,1.84-1.58,3.09-1.58,1.92,0,2.8,1.24,2.8,3.59v5.83h-1.39v-5.66c0-1.77-.54-2.55-1.82-2.55-.97,0-1.67,.51-2.62,1.5v6.71h-1.38V11.38Z"/></g><line class="f" x1="96.43" y1="408.49" x2="755.46" y2="408.49"/><rect class="d" x="132.8" y="240.97" width="75" height="167.52"/><rect class="d" x="257.65" y="192.11" width="75" height="216.38"/><rect class="d" x="382.51" y="111.84" width="75" height="296.65"/><rect class="d" x="507.36" y="41.66" width="75" height="366.83"/><rect class="d" x="632.21" y="41.66" width="75" height="366.83"/><g><path class="d" d="M643.58,4.34V13.72c0,.82-.14,1.54-.41,2.17s-.65,1.15-1.13,1.58c-.48,.42-1.06,.74-1.72,.96-.67,.21-1.39,.32-2.18,.32s-1.53-.11-2.19-.32c-.67-.21-1.24-.53-1.72-.96-.48-.42-.86-.95-1.13-1.58-.27-.63-.41-1.35-.41-2.17V4.34h2.93V13.72c0,.93,.22,1.61,.67,2.04,.45,.43,1.06,.64,1.85,.64s1.41-.21,1.85-.64,.66-1.11,.66-2.04V4.34h2.94Z"/><path class="d" d="M653.35,14.83c0-.25-.04-.47-.11-.67-.07-.2-.21-.38-.41-.55s-.49-.33-.85-.5-.83-.33-1.4-.52c-.65-.21-1.26-.44-1.84-.7s-1.08-.57-1.51-.92c-.43-.35-.78-.76-1.03-1.23-.25-.46-.38-1-.38-1.62s.13-1.13,.39-1.63c.26-.49,.62-.91,1.08-1.25,.46-.34,1.02-.61,1.66-.81,.64-.19,1.35-.29,2.11-.29s1.5,.11,2.15,.33,1.2,.52,1.65,.91c.46,.39,.81,.85,1.05,1.39,.25,.54,.37,1.12,.37,1.76h-2.93c0-.3-.05-.58-.14-.83-.1-.25-.24-.47-.44-.65s-.44-.32-.73-.42-.64-.15-1.04-.15-.72,.04-1,.13-.52,.2-.7,.35-.33,.33-.42,.53c-.1,.2-.14,.42-.14,.64,0,.47,.24,.86,.72,1.18s1.18,.61,2.1,.88c.78,.24,1.46,.51,2.05,.8,.59,.29,1.08,.62,1.47,1,.39,.37,.69,.79,.89,1.25,.2,.46,.3,.99,.3,1.57,0,.62-.12,1.18-.37,1.67s-.59,.9-1.04,1.24-.99,.59-1.62,.77-1.34,.27-2.12,.27c-.47,0-.94-.04-1.41-.12s-.92-.21-1.34-.38c-.43-.17-.82-.38-1.19-.63-.36-.25-.68-.55-.95-.9-.27-.34-.48-.74-.63-1.18-.15-.44-.23-.93-.23-1.46h2.94c0,.43,.07,.79,.21,1.09s.33,.54,.57,.73,.54,.32,.88,.41c.35,.08,.73,.13,1.15,.13,.38,0,.71-.04,.99-.12,.28-.08,.51-.19,.69-.34,.18-.14,.32-.31,.41-.51s.13-.41,.13-.64Z"/><path class="d" d="M669.7,14.82c0-.27-.04-.51-.11-.72-.07-.21-.19-.4-.35-.57-.16-.17-.37-.33-.63-.47-.26-.14-.57-.28-.94-.42-.64-.24-1.22-.49-1.74-.76-.52-.26-.97-.57-1.34-.91s-.66-.75-.86-1.21-.31-1.01-.31-1.65c0-.55,.09-1.06,.27-1.51,.18-.46,.44-.85,.78-1.19,.34-.34,.74-.61,1.22-.83,.47-.21,1-.35,1.59-.41V2.08h1.56v2.12c.56,.08,1.07,.24,1.52,.48,.46,.24,.84,.55,1.16,.94,.32,.38,.56,.84,.74,1.36,.17,.52,.26,1.11,.26,1.76h-2.82c0-.78-.16-1.37-.48-1.75s-.75-.58-1.29-.58c-.29,0-.54,.04-.76,.13-.21,.09-.39,.21-.52,.36s-.24,.33-.3,.54c-.06,.21-.1,.43-.1,.67s.03,.46,.1,.65c.07,.2,.18,.38,.34,.54,.16,.17,.37,.32,.63,.47s.59,.3,.98,.45c.63,.25,1.21,.51,1.72,.78s.96,.57,1.33,.92,.66,.75,.87,1.22,.31,1.01,.31,1.64c0,.57-.09,1.09-.28,1.54s-.45,.85-.79,1.18c-.34,.33-.75,.6-1.22,.8s-1.01,.33-1.6,.39v1.94h-1.55v-1.93c-.54-.06-1.06-.19-1.57-.38-.51-.2-.95-.48-1.34-.84s-.7-.83-.94-1.39-.35-1.23-.35-2.01h2.82c0,.46,.06,.85,.18,1.16,.12,.31,.28,.56,.48,.74,.2,.19,.43,.32,.69,.39,.26,.08,.52,.11,.79,.11,.31,0,.57-.04,.81-.13,.23-.08,.42-.2,.58-.35s.27-.33,.35-.53,.12-.43,.12-.67Z"/><path class="d" d="M681.28,18.56h-2.82V7.68l-3.37,1.04v-2.29l5.89-2.11h.3v14.24Z"/><path class="d" d="M695.47,12.68c0,1.07-.12,1.98-.35,2.75-.23,.76-.56,1.39-.98,1.89s-.93,.86-1.51,1.09c-.59,.23-1.24,.35-1.96,.35s-1.37-.12-1.96-.35c-.59-.23-1.1-.59-1.52-1.09-.42-.5-.75-1.12-.99-1.89s-.35-1.68-.35-2.75v-2.47c0-1.07,.12-1.98,.35-2.75,.23-.76,.56-1.39,.98-1.88,.42-.49,.93-.85,1.51-1.08s1.24-.35,1.95-.35,1.37,.12,1.96,.35c.59,.23,1.1,.59,1.52,1.08,.42,.49,.75,1.12,.99,1.88s.35,1.68,.35,2.75v2.47Zm-2.82-2.87c0-.63-.04-1.16-.13-1.59s-.22-.78-.39-1.04c-.17-.26-.38-.45-.63-.57-.25-.12-.53-.18-.84-.18s-.59,.06-.83,.18-.45,.31-.62,.57c-.17,.26-.3,.61-.38,1.04s-.13,.96-.13,1.59v3.24c0,.64,.05,1.17,.14,1.61,.09,.44,.22,.79,.39,1.06,.17,.27,.38,.46,.62,.58,.25,.12,.53,.18,.84,.18s.59-.06,.84-.18c.25-.12,.46-.31,.62-.58s.29-.62,.38-1.06,.13-.97,.13-1.61v-3.24Z"/><path class="d" d="M699.56,16.34c.72,0,1.34-.08,1.87-.23s.97-.38,1.33-.67,.64-.65,.84-1.08c.2-.43,.32-.92,.38-1.48-.34,.33-.73,.6-1.17,.79s-.91,.29-1.41,.29c-.67,0-1.26-.12-1.78-.37s-.95-.58-1.3-1.01-.62-.93-.79-1.51c-.18-.58-.27-1.22-.27-1.9s.11-1.34,.34-1.95,.54-1.14,.96-1.6c.41-.46,.91-.82,1.5-1.08,.59-.27,1.25-.4,1.98-.4s1.39,.14,1.99,.42,1.1,.67,1.52,1.18c.42,.51,.74,1.12,.97,1.83,.23,.71,.34,1.5,.34,2.37v.99c0,1.17-.15,2.22-.45,3.18-.3,.95-.75,1.77-1.35,2.45-.6,.68-1.36,1.21-2.26,1.58-.9,.37-1.96,.56-3.18,.56h-.22v-2.35h.2Zm2.53-4.54c.46,0,.85-.12,1.18-.35,.33-.23,.58-.52,.75-.85v-1.16c0-.51-.05-.95-.15-1.33-.1-.38-.24-.69-.43-.94-.18-.25-.39-.44-.64-.56s-.51-.19-.8-.19c-.31,0-.59,.08-.83,.23-.24,.15-.44,.36-.61,.61s-.29,.54-.38,.87c-.08,.33-.13,.66-.13,1.02s.04,.71,.13,1.03c.09,.32,.21,.6,.38,.84s.38,.44,.63,.58,.55,.21,.9,.21Z"/></g><g><path class="d" d="M520.1,4.34V13.72c0,.82-.14,1.54-.41,2.17s-.65,1.15-1.13,1.58-1.06,.74-1.72,.96-1.39,.32-2.18,.32-1.53-.11-2.19-.32-1.24-.53-1.72-.96-.86-.95-1.13-1.58-.41-1.35-.41-2.17V4.34h2.93V13.72c0,.93,.22,1.61,.67,2.04s1.06,.64,1.85,.64,1.41-.21,1.85-.64,.66-1.11,.66-2.04V4.34h2.94Z"/><path class="d" d="M529.87,14.83c0-.25-.04-.47-.11-.67s-.21-.38-.42-.55-.49-.33-.85-.5-.83-.33-1.4-.52c-.65-.21-1.26-.44-1.84-.7s-1.08-.57-1.51-.92-.77-.76-1.03-1.23-.38-1-.38-1.62,.13-1.13,.39-1.63,.62-.91,1.08-1.25,1.02-.61,1.66-.81,1.35-.29,2.11-.29,1.5,.11,2.15,.33,1.19,.52,1.65,.91,.81,.85,1.05,1.39,.37,1.12,.37,1.76h-2.93c0-.3-.05-.58-.14-.83s-.24-.47-.43-.65-.44-.32-.73-.42-.64-.15-1.04-.15-.72,.04-1,.13-.52,.2-.7,.35-.33,.33-.42,.53-.14,.42-.14,.64c0,.47,.24,.86,.72,1.18s1.18,.61,2.1,.88c.77,.24,1.46,.51,2.05,.8s1.08,.62,1.47,1,.69,.79,.89,1.25,.3,.99,.3,1.57c0,.62-.12,1.18-.37,1.67s-.59,.9-1.04,1.24-.99,.59-1.63,.77-1.34,.27-2.12,.27c-.47,0-.94-.04-1.41-.12s-.92-.21-1.34-.38-.82-.38-1.19-.63-.68-.55-.95-.9-.48-.74-.63-1.18-.23-.93-.23-1.46h2.94c0,.43,.07,.79,.21,1.09s.33,.54,.57,.73,.54,.32,.88,.41,.73,.13,1.15,.13c.38,0,.71-.04,.99-.12s.51-.19,.69-.34,.32-.31,.41-.51,.13-.41,.13-.64Z"/><path class="d" d="M546.22,14.82c0-.27-.04-.51-.11-.72s-.19-.4-.35-.57-.37-.33-.63-.47-.57-.28-.94-.42c-.64-.24-1.22-.49-1.74-.76s-.97-.57-1.34-.91-.66-.75-.86-1.21-.31-1.01-.31-1.65c0-.55,.09-1.06,.27-1.51s.44-.85,.78-1.19,.74-.61,1.22-.83,1-.35,1.59-.41V2.08h1.56v2.12c.56,.08,1.07,.24,1.52,.48s.84,.55,1.16,.94,.56,.84,.74,1.36,.26,1.11,.26,1.76h-2.82c0-.78-.16-1.37-.48-1.75s-.75-.58-1.29-.58c-.29,0-.54,.04-.76,.13s-.39,.21-.52,.36-.24,.33-.3,.54-.1,.43-.1,.67,.03,.46,.1,.65,.18,.38,.34,.54,.37,.32,.63,.47,.59,.3,.98,.45c.63,.25,1.21,.51,1.72,.78s.96,.57,1.33,.92,.66,.75,.86,1.22,.31,1.01,.31,1.64c0,.57-.09,1.09-.28,1.54s-.45,.85-.79,1.18-.75,.6-1.23,.8-1.01,.33-1.6,.39v1.94h-1.55v-1.93c-.54-.06-1.06-.19-1.57-.38s-.95-.48-1.34-.84-.7-.83-.94-1.39-.35-1.23-.35-2.01h2.82c0,.46,.06,.85,.18,1.16s.28,.56,.48,.74,.43,.32,.69,.39,.52,.11,.79,.11c.31,0,.57-.04,.81-.13s.42-.2,.58-.35,.27-.33,.35-.53,.12-.43,.12-.67Z"/><path class="d" d="M557.8,18.56h-2.82V7.68l-3.37,1.04v-2.29l5.89-2.11h.3v14.24Z"/><path class="d" d="M571.99,12.68c0,1.07-.12,1.98-.35,2.75s-.56,1.39-.98,1.89-.92,.86-1.51,1.09-1.24,.35-1.96,.35-1.37-.12-1.96-.35-1.1-.59-1.52-1.09-.75-1.12-.99-1.89-.35-1.68-.35-2.75v-2.47c0-1.07,.12-1.98,.35-2.75s.56-1.39,.98-1.88,.93-.85,1.51-1.08,1.24-.35,1.95-.35,1.37,.12,1.96,.35,1.1,.59,1.52,1.08,.75,1.12,.99,1.88,.35,1.68,.35,2.75v2.47Zm-2.82-2.87c0-.63-.04-1.16-.13-1.59s-.22-.78-.39-1.04-.38-.45-.63-.57-.53-.18-.84-.18-.59,.06-.83,.18-.45,.31-.62,.57-.3,.61-.39,1.04-.13,.96-.13,1.59v3.24c0,.64,.05,1.17,.14,1.61s.22,.79,.39,1.06,.38,.46,.62,.58,.53,.18,.84,.18,.59-.06,.84-.18,.45-.31,.62-.58,.29-.62,.38-1.06,.13-.97,.13-1.61v-3.24Z"/><path class="d" d="M576.08,16.34c.72,0,1.34-.08,1.87-.23s.97-.38,1.33-.67,.64-.65,.84-1.08,.32-.92,.38-1.48c-.34,.33-.73,.6-1.17,.79s-.91,.29-1.41,.29c-.67,0-1.26-.12-1.78-.37s-.95-.58-1.3-1.01-.62-.93-.8-1.51-.27-1.22-.27-1.9,.11-1.34,.34-1.95,.54-1.14,.96-1.6,.92-.82,1.5-1.08,1.25-.4,1.98-.4,1.39,.14,1.99,.42,1.1,.67,1.52,1.18,.74,1.12,.97,1.83,.34,1.5,.34,2.37v.99c0,1.17-.15,2.22-.45,3.18s-.75,1.77-1.35,2.45-1.36,1.21-2.26,1.58-1.97,.56-3.18,.56h-.22v-2.35h.2Zm2.53-4.54c.46,0,.85-.12,1.18-.35s.58-.52,.75-.85v-1.16c0-.51-.05-.95-.15-1.33s-.24-.69-.42-.94-.4-.44-.64-.56-.51-.19-.8-.19c-.31,0-.59,.08-.83,.23s-.44,.36-.61,.61-.29,.54-.38,.87-.13,.66-.13,1.02,.04,.71,.13,1.03,.21,.6,.38,.84,.38,.44,.63,.58,.55,.21,.9,.21Z"/></g><g><path class="d" d="M397.78,81.14v9.38c0,.82-.14,1.54-.41,2.17s-.65,1.15-1.13,1.58c-.48,.42-1.06,.74-1.72,.96-.67,.21-1.39,.32-2.18,.32s-1.53-.11-2.19-.32c-.67-.21-1.24-.53-1.72-.96-.48-.42-.86-.95-1.13-1.58s-.41-1.35-.41-2.17v-9.38h2.93v9.38c0,.93,.22,1.61,.67,2.04,.45,.43,1.06,.64,1.85,.64s1.41-.21,1.85-.64,.66-1.11,.66-2.04v-9.38h2.94Z"/><path class="d" d="M407.56,91.62c0-.25-.04-.47-.11-.67-.07-.2-.21-.38-.41-.55s-.49-.33-.85-.5-.83-.33-1.4-.52c-.65-.21-1.26-.44-1.84-.7s-1.08-.57-1.51-.92c-.43-.35-.78-.76-1.03-1.23-.25-.46-.38-1-.38-1.62s.13-1.13,.39-1.63c.26-.49,.62-.91,1.08-1.25,.46-.34,1.02-.61,1.66-.81,.64-.19,1.35-.29,2.11-.29s1.5,.11,2.15,.33,1.2,.52,1.65,.91c.46,.39,.81,.85,1.05,1.39,.25,.54,.37,1.12,.37,1.76h-2.93c0-.3-.05-.58-.14-.83-.1-.25-.24-.47-.44-.65s-.44-.32-.73-.42-.64-.15-1.04-.15-.72,.04-1,.13-.52,.2-.7,.35-.33,.33-.42,.53c-.1,.2-.14,.42-.14,.64,0,.47,.24,.86,.72,1.18s1.18,.61,2.1,.88c.78,.24,1.46,.51,2.05,.8,.59,.29,1.08,.62,1.47,1,.39,.37,.69,.79,.89,1.25,.2,.46,.3,.99,.3,1.57,0,.62-.12,1.18-.37,1.67s-.59,.9-1.04,1.24-.99,.59-1.62,.77-1.34,.27-2.12,.27c-.47,0-.94-.04-1.41-.12s-.92-.21-1.34-.38c-.43-.17-.82-.38-1.19-.63-.36-.25-.68-.55-.95-.9-.27-.34-.48-.74-.63-1.18-.15-.44-.23-.93-.23-1.46h2.94c0,.43,.07,.79,.21,1.09s.33,.54,.57,.73,.54,.32,.88,.41c.35,.08,.73,.13,1.15,.13,.38,0,.71-.04,.99-.12,.28-.08,.51-.19,.69-.34,.18-.14,.32-.31,.41-.51s.13-.41,.13-.64Z"/><path class="d" d="M423.9,91.62c0-.27-.04-.51-.11-.72-.07-.21-.19-.4-.35-.57-.16-.17-.37-.33-.63-.47-.26-.14-.57-.28-.94-.42-.64-.24-1.22-.49-1.74-.76-.52-.26-.97-.57-1.34-.91s-.66-.75-.86-1.21-.31-1.01-.31-1.65c0-.55,.09-1.06,.27-1.51,.18-.46,.44-.85,.78-1.19,.34-.34,.74-.61,1.22-.83,.47-.21,1-.35,1.59-.41v-2.09h1.56v2.12c.56,.08,1.07,.24,1.52,.48,.46,.24,.84,.55,1.16,.94,.32,.38,.56,.84,.74,1.36,.17,.52,.26,1.11,.26,1.76h-2.82c0-.78-.16-1.37-.48-1.75s-.75-.58-1.29-.58c-.29,0-.54,.04-.76,.13-.21,.09-.39,.21-.52,.36s-.24,.33-.3,.54c-.06,.21-.1,.43-.1,.67s.03,.46,.1,.65c.07,.2,.18,.38,.34,.54,.16,.17,.37,.32,.63,.47s.59,.3,.98,.45c.63,.25,1.21,.51,1.72,.78s.96,.57,1.33,.92,.66,.75,.87,1.22,.31,1.01,.31,1.64c0,.57-.09,1.09-.28,1.54s-.45,.85-.79,1.18c-.34,.33-.75,.6-1.22,.8s-1.01,.33-1.6,.39v1.94h-1.55v-1.93c-.54-.06-1.06-.19-1.57-.38-.51-.2-.95-.48-1.34-.84s-.7-.83-.94-1.39-.35-1.23-.35-2.01h2.82c0,.46,.06,.85,.18,1.16,.12,.31,.28,.56,.48,.74,.2,.19,.43,.32,.69,.39,.26,.08,.52,.11,.79,.11,.31,0,.57-.04,.81-.13,.23-.08,.42-.2,.58-.35s.27-.33,.35-.53,.12-.43,.12-.67Z"/><path class="d" d="M430.82,93.14c.72,0,1.34-.08,1.87-.23s.97-.38,1.33-.67,.64-.65,.84-1.08c.2-.43,.32-.92,.38-1.48-.34,.33-.73,.6-1.17,.79s-.91,.29-1.41,.29c-.67,0-1.26-.12-1.78-.37s-.95-.58-1.3-1.01-.62-.93-.79-1.51c-.18-.58-.27-1.22-.27-1.9s.11-1.34,.34-1.95,.54-1.14,.96-1.6c.41-.46,.91-.82,1.5-1.08,.59-.27,1.25-.4,1.98-.4s1.39,.14,1.99,.42,1.1,.67,1.52,1.18c.42,.51,.74,1.12,.97,1.83,.23,.71,.34,1.5,.34,2.37v.99c0,1.17-.15,2.22-.45,3.18-.3,.95-.75,1.77-1.35,2.45-.6,.68-1.36,1.21-2.26,1.58-.9,.37-1.96,.56-3.18,.56h-.22v-2.35h.2Zm2.53-4.54c.46,0,.85-.12,1.18-.35,.33-.23,.58-.52,.75-.85v-1.16c0-.51-.05-.95-.15-1.33-.1-.38-.24-.69-.43-.94-.18-.25-.39-.44-.64-.56s-.51-.19-.8-.19c-.31,0-.59,.08-.83,.23-.24,.15-.44,.36-.61,.61s-.29,.54-.38,.87c-.08,.33-.13,.66-.13,1.02s.04,.71,.13,1.03c.09,.32,.21,.6,.38,.84s.38,.44,.63,.58,.55,.21,.9,.21Z"/><path class="d" d="M446.96,95.36h-2.82v-10.88l-3.37,1.04v-2.29l5.89-2.11h.3v14.24Z"/></g><g><path class="d" d="M272.93,162.74v9.38c0,.82-.14,1.54-.41,2.17s-.65,1.15-1.13,1.58c-.48,.42-1.06,.74-1.72,.96-.67,.21-1.39,.32-2.18,.32s-1.53-.11-2.19-.32c-.67-.21-1.24-.53-1.72-.96-.48-.42-.86-.95-1.13-1.58-.27-.63-.4-1.35-.4-2.17v-9.38h2.93v9.38c0,.93,.22,1.61,.67,2.04,.45,.43,1.06,.64,1.85,.64s1.41-.21,1.85-.64,.66-1.11,.66-2.04v-9.38h2.94Z"/><path class="d" d="M282.71,173.23c0-.25-.04-.47-.11-.67-.07-.2-.21-.38-.42-.55s-.49-.33-.85-.5-.83-.33-1.4-.52c-.65-.21-1.27-.44-1.84-.7s-1.08-.57-1.51-.92c-.43-.35-.77-.76-1.03-1.23-.25-.46-.38-1-.38-1.62s.13-1.13,.38-1.63c.26-.49,.62-.91,1.08-1.25,.47-.34,1.02-.61,1.66-.81,.64-.19,1.35-.29,2.12-.29s1.5,.11,2.15,.33,1.19,.52,1.65,.91c.46,.39,.81,.85,1.05,1.39,.25,.54,.37,1.12,.37,1.76h-2.93c0-.3-.05-.58-.14-.83-.09-.25-.24-.47-.43-.65s-.44-.32-.73-.42-.64-.15-1.04-.15-.72,.04-1,.13-.52,.2-.7,.35-.33,.33-.42,.53c-.09,.2-.14,.42-.14,.64,0,.47,.24,.86,.72,1.18s1.18,.61,2.11,.88c.77,.24,1.46,.51,2.04,.8,.59,.29,1.08,.62,1.47,1,.39,.37,.69,.79,.89,1.25,.2,.46,.3,.99,.3,1.57,0,.62-.12,1.18-.37,1.67s-.59,.9-1.04,1.24-.99,.59-1.63,.77-1.34,.27-2.12,.27c-.47,0-.94-.04-1.41-.12s-.92-.21-1.34-.38c-.43-.17-.82-.38-1.19-.63-.37-.25-.68-.55-.95-.9-.27-.34-.48-.74-.63-1.18-.15-.44-.23-.93-.23-1.46h2.94c0,.43,.07,.79,.21,1.09s.33,.54,.57,.73,.54,.32,.88,.41c.34,.08,.73,.13,1.15,.13,.38,0,.71-.04,.99-.12,.28-.08,.51-.19,.69-.34,.18-.14,.32-.31,.4-.51s.13-.41,.13-.64Z"/><path class="d" d="M299.06,173.22c0-.27-.04-.51-.11-.72-.07-.21-.19-.4-.35-.57-.16-.17-.37-.33-.63-.47-.26-.14-.57-.28-.94-.42-.64-.24-1.22-.49-1.74-.76-.52-.26-.97-.57-1.34-.91s-.66-.75-.87-1.21-.31-1.01-.31-1.65c0-.55,.09-1.06,.27-1.51,.18-.46,.44-.85,.78-1.19,.34-.34,.74-.61,1.21-.83,.47-.21,1-.35,1.59-.41v-2.09h1.56v2.12c.56,.08,1.07,.24,1.52,.48,.46,.24,.84,.55,1.16,.94,.32,.38,.56,.84,.74,1.36,.17,.52,.26,1.11,.26,1.76h-2.82c0-.78-.16-1.37-.48-1.75s-.75-.58-1.29-.58c-.29,0-.55,.04-.76,.13-.21,.09-.38,.21-.52,.36s-.24,.33-.3,.54c-.07,.21-.1,.43-.1,.67s.03,.46,.1,.65c.06,.2,.18,.38,.34,.54,.16,.17,.37,.32,.63,.47s.59,.3,.98,.45c.63,.25,1.21,.51,1.72,.78s.96,.57,1.33,.92,.66,.75,.86,1.22,.31,1.01,.31,1.64c0,.57-.09,1.09-.28,1.54s-.45,.85-.79,1.18c-.34,.33-.75,.6-1.23,.8s-1.01,.33-1.6,.39v1.94h-1.55v-1.93c-.54-.06-1.06-.19-1.57-.38-.5-.2-.95-.48-1.34-.84s-.7-.83-.94-1.39-.35-1.23-.35-2.01h2.82c0,.46,.06,.85,.18,1.16,.12,.31,.28,.56,.48,.74,.2,.19,.43,.32,.69,.39,.26,.08,.52,.11,.79,.11,.31,0,.57-.04,.8-.13,.23-.08,.43-.2,.58-.35s.27-.33,.35-.53,.12-.43,.12-.67Z"/><path class="d" d="M311.44,162.59v2.32h-.17c-.67,0-1.27,.09-1.81,.26-.53,.17-1,.42-1.38,.74-.39,.32-.7,.71-.94,1.16-.24,.46-.39,.97-.47,1.53,.34-.35,.76-.63,1.23-.84s1.02-.32,1.64-.32c.67,0,1.26,.13,1.76,.39,.5,.26,.93,.61,1.27,1.04,.34,.44,.59,.95,.76,1.53,.17,.58,.25,1.2,.25,1.86,0,.69-.11,1.33-.34,1.93s-.54,1.11-.96,1.55c-.42,.44-.92,.78-1.51,1.03-.59,.25-1.25,.38-1.98,.38s-1.45-.14-2.07-.42c-.62-.28-1.14-.66-1.58-1.16-.43-.5-.77-1.09-1.01-1.79-.24-.69-.36-1.46-.36-2.29v-1.09c0-1.15,.16-2.2,.49-3.15,.33-.96,.8-1.78,1.42-2.47,.62-.69,1.38-1.23,2.28-1.61s1.92-.58,3.07-.58h.4Zm-2.75,7.12c-.25,0-.49,.03-.7,.1s-.41,.16-.59,.28-.33,.26-.46,.42c-.13,.16-.24,.33-.32,.5v.85c0,.5,.05,.94,.16,1.32,.1,.38,.25,.69,.43,.94s.41,.44,.67,.56,.55,.19,.87,.19,.58-.07,.83-.2c.25-.13,.46-.31,.64-.54s.31-.5,.41-.82,.15-.66,.15-1.03-.05-.72-.14-1.04c-.09-.32-.23-.59-.41-.82-.18-.23-.4-.41-.66-.54-.26-.13-.55-.19-.87-.19Z"/><path class="d" d="M315.67,169.96l.82-7.23h7.97v2.35h-5.65l-.35,3.06c.1-.05,.22-.11,.36-.17,.14-.06,.31-.12,.49-.18s.39-.1,.61-.14c.22-.04,.45-.05,.68-.05,.68,0,1.29,.11,1.83,.33s.99,.53,1.36,.94,.65,.91,.85,1.5,.29,1.26,.29,2.01c0,.63-.1,1.23-.29,1.81s-.49,1.08-.89,1.51c-.4,.44-.9,.78-1.5,1.04-.6,.26-1.31,.39-2.12,.39-.61,0-1.21-.09-1.78-.28-.57-.19-1.08-.46-1.52-.81-.44-.35-.8-.79-1.07-1.3s-.42-1.1-.44-1.76h2.79c.06,.59,.26,1.05,.62,1.38,.36,.33,.82,.49,1.39,.49,.36,0,.66-.07,.91-.21,.25-.14,.46-.32,.62-.56,.16-.23,.28-.51,.35-.83,.08-.32,.11-.67,.11-1.04s-.05-.71-.14-1.02c-.09-.31-.23-.57-.42-.79-.19-.22-.43-.39-.71-.51-.29-.12-.62-.18-1.02-.18-.26,0-.49,.02-.68,.07-.19,.05-.36,.1-.51,.18-.15,.07-.28,.15-.4,.25-.11,.09-.22,.19-.32,.29l-2.25-.56Z"/></g><g><path class="d" d="M151.72,210.74v9.38c0,.82-.14,1.54-.41,2.17s-.65,1.15-1.13,1.58c-.48,.42-1.06,.74-1.72,.96-.67,.21-1.39,.32-2.18,.32s-1.52-.11-2.19-.32c-.67-.21-1.24-.53-1.72-.96-.48-.42-.86-.95-1.13-1.58-.27-.63-.41-1.35-.41-2.17v-9.38h2.93v9.38c0,.93,.22,1.61,.67,2.04,.45,.43,1.06,.64,1.85,.64s1.41-.21,1.85-.64,.66-1.11,.66-2.04v-9.38h2.94Z"/><path class="d" d="M161.5,221.22c0-.25-.04-.47-.11-.67-.07-.2-.21-.38-.42-.55s-.49-.33-.85-.5-.83-.33-1.4-.52c-.65-.21-1.26-.44-1.84-.7s-1.08-.57-1.51-.92c-.43-.35-.77-.76-1.03-1.23-.25-.46-.38-1-.38-1.62s.13-1.13,.39-1.63c.26-.49,.62-.91,1.08-1.25,.47-.34,1.02-.61,1.66-.81,.64-.19,1.35-.29,2.11-.29s1.5,.11,2.15,.33,1.2,.52,1.65,.91c.46,.39,.81,.85,1.05,1.39,.25,.54,.37,1.12,.37,1.76h-2.93c0-.3-.05-.58-.14-.83-.09-.25-.24-.47-.43-.65s-.44-.32-.73-.42-.64-.15-1.04-.15-.72,.04-1,.13-.52,.2-.7,.35-.33,.33-.42,.53c-.09,.2-.14,.42-.14,.64,0,.47,.24,.86,.72,1.18s1.18,.61,2.1,.88c.78,.24,1.46,.51,2.05,.8,.59,.29,1.08,.62,1.47,1,.39,.37,.69,.79,.89,1.25,.2,.46,.3,.99,.3,1.57,0,.62-.12,1.18-.37,1.67s-.59,.9-1.04,1.24-.99,.59-1.63,.77-1.34,.27-2.12,.27c-.47,0-.94-.04-1.41-.12s-.92-.21-1.34-.38c-.43-.17-.82-.38-1.19-.63-.36-.25-.68-.55-.95-.9-.27-.34-.48-.74-.63-1.18-.15-.44-.23-.93-.23-1.46h2.94c0,.43,.07,.79,.21,1.09s.33,.54,.57,.73,.54,.32,.88,.41c.35,.08,.73,.13,1.15,.13,.38,0,.71-.04,.99-.12,.28-.08,.51-.19,.69-.34,.18-.14,.32-.31,.41-.51s.13-.41,.13-.64Z"/><path class="d" d="M177.85,221.21c0-.27-.04-.51-.11-.72-.07-.21-.19-.4-.35-.57-.16-.17-.37-.33-.63-.47-.26-.14-.57-.28-.94-.42-.64-.24-1.22-.49-1.74-.76-.52-.26-.97-.57-1.34-.91s-.66-.75-.86-1.21-.31-1.01-.31-1.65c0-.55,.09-1.06,.27-1.51,.18-.46,.44-.85,.78-1.19,.34-.34,.74-.61,1.22-.83,.47-.21,1-.35,1.59-.41v-2.09h1.56v2.12c.56,.08,1.07,.24,1.52,.48,.46,.24,.84,.55,1.16,.94,.32,.38,.57,.84,.74,1.36,.17,.52,.26,1.11,.26,1.76h-2.82c0-.78-.16-1.37-.48-1.75s-.75-.58-1.29-.58c-.29,0-.54,.04-.76,.13-.21,.09-.39,.21-.52,.36s-.24,.33-.3,.54c-.06,.21-.1,.43-.1,.67s.03,.46,.1,.65c.07,.2,.18,.38,.34,.54,.16,.17,.37,.32,.63,.47s.59,.3,.98,.45c.63,.25,1.21,.51,1.72,.78s.96,.57,1.33,.92,.66,.75,.86,1.22,.31,1.01,.31,1.64c0,.57-.09,1.09-.28,1.54s-.45,.85-.79,1.18c-.34,.33-.75,.6-1.23,.8s-1.01,.33-1.6,.39v1.94h-1.55v-1.93c-.54-.06-1.06-.19-1.57-.38-.5-.2-.95-.48-1.34-.84s-.7-.83-.94-1.39-.35-1.23-.35-2.01h2.82c0,.46,.06,.85,.18,1.16,.12,.31,.28,.56,.48,.74,.2,.19,.43,.32,.69,.39,.26,.08,.52,.11,.79,.11,.31,0,.58-.04,.81-.13,.23-.08,.42-.2,.58-.35s.27-.33,.35-.53,.12-.43,.12-.67Z"/><path class="d" d="M182.99,217.96l.82-7.23h7.97v2.35h-5.65l-.35,3.06c.1-.05,.22-.11,.36-.17,.14-.06,.31-.12,.49-.18s.39-.1,.61-.14c.22-.04,.44-.05,.68-.05,.68,0,1.29,.11,1.83,.33s.99,.53,1.36,.94,.65,.91,.85,1.5,.29,1.26,.29,2.01c0,.63-.1,1.23-.29,1.81s-.49,1.08-.89,1.51c-.4,.44-.9,.78-1.5,1.04-.6,.26-1.31,.39-2.12,.39-.61,0-1.2-.09-1.78-.28-.57-.19-1.08-.46-1.52-.81-.44-.35-.8-.79-1.07-1.3s-.42-1.1-.44-1.76h2.79c.06,.59,.27,1.05,.62,1.38,.36,.33,.82,.49,1.39,.49,.36,0,.66-.07,.91-.21,.25-.14,.46-.32,.62-.56,.16-.23,.28-.51,.35-.83,.08-.32,.11-.67,.11-1.04s-.04-.71-.14-1.02c-.09-.31-.23-.57-.42-.79-.19-.22-.43-.39-.71-.51-.29-.12-.62-.18-1.02-.18-.26,0-.49,.02-.68,.07-.19,.05-.36,.1-.51,.18-.15,.07-.28,.15-.4,.25-.11,.09-.22,.19-.32,.29l-2.25-.56Z"/><path class="d" d="M194.47,217.96l.82-7.23h7.97v2.35h-5.65l-.35,3.06c.1-.05,.22-.11,.36-.17,.14-.06,.31-.12,.49-.18s.39-.1,.61-.14c.22-.04,.44-.05,.68-.05,.68,0,1.29,.11,1.83,.33s.99,.53,1.36,.94,.65,.91,.85,1.5,.29,1.26,.29,2.01c0,.63-.1,1.23-.29,1.81s-.49,1.08-.89,1.51c-.4,.44-.9,.78-1.5,1.04-.6,.26-1.31,.39-2.12,.39-.61,0-1.2-.09-1.78-.28-.57-.19-1.08-.46-1.52-.81-.44-.35-.8-.79-1.07-1.3s-.42-1.1-.44-1.76h2.79c.06,.59,.27,1.05,.62,1.38,.36,.33,.82,.49,1.39,.49,.36,0,.66-.07,.91-.21,.25-.14,.46-.32,.62-.56,.16-.23,.28-.51,.35-.83,.08-.32,.11-.67,.11-1.04s-.04-.71-.14-1.02c-.09-.31-.23-.57-.42-.79-.19-.22-.43-.39-.71-.51-.29-.12-.62-.18-1.02-.18-.26,0-.49,.02-.68,.07-.19,.05-.36,.1-.51,.18-.15,.07-.28,.15-.4,.25-.11,.09-.22,.19-.32,.29l-2.25-.56Z"/></g><g><path class="e" d="M52.61,50.36h-1.63v-10.84l-3.28,1.2v-1.48l4.66-1.75h.25v12.86Z"/><path class="e" d="M65.4,44.9c0,1.05-.09,1.93-.28,2.65-.19,.72-.46,1.3-.8,1.74-.35,.44-.77,.76-1.27,.95s-1.05,.29-1.67,.29-1.17-.1-1.67-.29-.92-.51-1.28-.95c-.35-.44-.62-1.02-.82-1.74-.19-.72-.29-1.6-.29-2.65v-1.95c0-1.05,.1-1.93,.29-2.64s.46-1.28,.81-1.71,.77-.74,1.27-.93,1.05-.28,1.67-.28,1.18,.09,1.68,.28,.92,.5,1.28,.93,.62,1,.81,1.71,.28,1.59,.28,2.64v1.95Zm-1.63-2.22c0-.72-.05-1.33-.15-1.84s-.26-.91-.46-1.23-.46-.54-.76-.68-.65-.21-1.04-.21-.73,.07-1.03,.21-.55,.37-.76,.68-.36,.72-.46,1.23-.16,1.12-.16,1.84v2.48c0,.71,.05,1.33,.16,1.84s.26,.93,.47,1.26,.46,.57,.76,.72,.65,.23,1.03,.23,.75-.08,1.04-.23,.55-.39,.75-.72,.35-.75,.45-1.26,.15-1.13,.15-1.84v-2.48Z"/><path class="e" d="M75.51,44.9c0,1.05-.09,1.93-.28,2.65-.19,.72-.46,1.3-.8,1.74-.35,.44-.77,.76-1.27,.95s-1.05,.29-1.67,.29-1.17-.1-1.67-.29-.92-.51-1.28-.95c-.35-.44-.62-1.02-.82-1.74-.19-.72-.29-1.6-.29-2.65v-1.95c0-1.05,.1-1.93,.29-2.64s.46-1.28,.81-1.71,.77-.74,1.27-.93,1.05-.28,1.67-.28,1.18,.09,1.68,.28,.92,.5,1.28,.93,.62,1,.81,1.71,.28,1.59,.28,2.64v1.95Zm-1.63-2.22c0-.72-.05-1.33-.15-1.84s-.26-.91-.46-1.23-.46-.54-.76-.68-.65-.21-1.04-.21-.73,.07-1.03,.21-.55,.37-.76,.68-.36,.72-.46,1.23-.16,1.12-.16,1.84v2.48c0,.71,.05,1.33,.16,1.84s.26,.93,.47,1.26,.46,.57,.76,.72,.65,.23,1.03,.23,.75-.08,1.04-.23,.55-.39,.75-.72,.35-.75,.45-1.26,.15-1.13,.15-1.84v-2.48Z"/><path class="e" d="M80.41,45.96l-1.02,1.06v3.34h-1.63v-13.5h1.63v8.17l.87-1.05,2.96-3.13h1.98l-3.7,3.97,4.13,5.54h-1.91l-3.31-4.4Z"/></g><g><path class="e" d="M156.73,439.74h-8.38v-1.17l4.19-4.66c.39-.43,.71-.81,.96-1.13s.46-.63,.61-.9c.15-.27,.25-.53,.31-.77,.06-.24,.09-.48,.09-.72,0-.32-.05-.61-.15-.89-.1-.28-.24-.52-.43-.72s-.42-.37-.69-.49c-.28-.12-.59-.18-.95-.18-.43,0-.81,.06-1.13,.19s-.58,.31-.79,.54-.37,.5-.47,.82c-.11,.32-.16,.67-.16,1.06h-1.63c0-.54,.09-1.05,.27-1.53s.44-.9,.8-1.26,.79-.64,1.31-.85,1.12-.31,1.81-.31c.6,0,1.14,.08,1.62,.25s.88,.4,1.21,.7,.58,.66,.76,1.08,.26,.89,.26,1.4c0,.38-.06,.75-.19,1.13s-.3,.76-.52,1.14c-.22,.38-.47,.75-.76,1.12-.29,.37-.6,.74-.92,1.09l-3.44,3.73h6.42v1.33Z"/><path class="e" d="M166.48,434.29c0,1.05-.09,1.93-.28,2.65-.19,.72-.46,1.3-.8,1.74-.35,.44-.77,.76-1.27,.95s-1.05,.29-1.67,.29-1.17-.1-1.67-.29-.92-.51-1.27-.95c-.35-.44-.62-1.02-.82-1.74-.19-.72-.29-1.6-.29-2.65v-1.95c0-1.05,.09-1.93,.29-2.64s.46-1.28,.81-1.71,.77-.74,1.27-.93,1.05-.28,1.67-.28,1.18,.09,1.68,.28,.92,.5,1.27,.93,.62,1,.81,1.71,.28,1.59,.28,2.64v1.95Zm-1.63-2.22c0-.72-.05-1.33-.15-1.84s-.26-.91-.46-1.23-.46-.54-.76-.68-.65-.21-1.04-.21-.73,.07-1.03,.21-.55,.37-.76,.68-.36,.72-.46,1.23-.16,1.12-.16,1.84v2.48c0,.71,.05,1.33,.16,1.84s.26,.93,.47,1.26,.46,.57,.76,.72,.65,.23,1.03,.23,.75-.08,1.05-.23,.55-.39,.75-.72,.35-.75,.45-1.26,.15-1.13,.15-1.84v-2.48Z"/><path class="e" d="M173.91,439.74h-1.63v-10.84l-3.28,1.2v-1.48l4.66-1.75h.25v12.86Z"/><path class="e" d="M180.44,438.38c.88,0,1.6-.12,2.17-.36,.57-.24,1.02-.55,1.35-.95,.33-.39,.56-.85,.7-1.36s.21-1.04,.24-1.6c-.34,.4-.75,.73-1.22,.98s-.99,.37-1.55,.37c-.63,0-1.18-.12-1.64-.37-.46-.25-.84-.57-1.13-.97s-.52-.86-.66-1.37-.21-1.03-.21-1.55c0-.61,.08-1.18,.25-1.72s.42-1.01,.75-1.41,.74-.72,1.24-.95,1.07-.35,1.72-.35c.73,0,1.36,.15,1.87,.44,.52,.3,.94,.69,1.27,1.17s.57,1.04,.72,1.66c.15,.62,.23,1.25,.23,1.9v.59c0,.56-.03,1.12-.08,1.69-.06,.57-.16,1.12-.32,1.66-.16,.54-.37,1.04-.65,1.51s-.64,.88-1.09,1.23c-.45,.35-1,.62-1.65,.83-.65,.2-1.41,.3-2.3,.3h-.16v-1.37h.16Zm1.95-4.26c.28,0,.54-.04,.8-.13s.5-.21,.71-.37,.41-.34,.58-.55,.31-.44,.42-.69v-.65c0-.58-.07-1.09-.2-1.54-.13-.45-.32-.82-.54-1.13s-.49-.54-.78-.69-.6-.24-.93-.24c-.38,0-.72,.08-1.01,.23s-.54,.36-.74,.63-.36,.58-.46,.94-.16,.76-.16,1.19c0,.38,.05,.75,.14,1.11,.09,.36,.24,.68,.43,.96s.43,.51,.72,.68,.63,.25,1.02,.25Z"/></g><g><path class="e" d="M283.1,439.74h-8.38v-1.17l4.19-4.66c.39-.43,.71-.81,.96-1.13s.46-.63,.61-.9c.15-.27,.25-.53,.31-.77,.06-.24,.09-.48,.09-.72,0-.32-.05-.61-.15-.89-.1-.28-.24-.52-.43-.72s-.42-.37-.69-.49c-.28-.12-.59-.18-.95-.18-.43,0-.81,.06-1.13,.19s-.58,.31-.8,.54-.37,.5-.47,.82c-.11,.32-.16,.67-.16,1.06h-1.63c0-.54,.09-1.05,.27-1.53s.44-.9,.79-1.26,.79-.64,1.31-.85,1.12-.31,1.81-.31c.6,0,1.14,.08,1.62,.25s.88,.4,1.21,.7,.58,.66,.76,1.08,.26,.89,.26,1.4c0,.38-.06,.75-.19,1.13s-.3,.76-.52,1.14c-.22,.38-.47,.75-.76,1.12-.29,.37-.6,.74-.92,1.09l-3.44,3.73h6.42v1.33Z"/><path class="e" d="M292.85,434.29c0,1.05-.09,1.93-.28,2.65-.19,.72-.46,1.3-.8,1.74-.35,.44-.77,.76-1.27,.95s-1.05,.29-1.67,.29-1.17-.1-1.67-.29-.92-.51-1.27-.95c-.35-.44-.62-1.02-.82-1.74-.19-.72-.29-1.6-.29-2.65v-1.95c0-1.05,.1-1.93,.29-2.64s.46-1.28,.81-1.71,.78-.74,1.27-.93,1.05-.28,1.67-.28,1.18,.09,1.68,.28,.92,.5,1.27,.93,.62,1,.81,1.71,.28,1.59,.28,2.64v1.95Zm-1.63-2.22c0-.72-.05-1.33-.15-1.84s-.26-.91-.46-1.23-.46-.54-.76-.68-.65-.21-1.04-.21-.73,.07-1.03,.21-.55,.37-.76,.68-.36,.72-.46,1.23-.16,1.12-.16,1.84v2.48c0,.71,.05,1.33,.16,1.84s.26,.93,.47,1.26,.46,.57,.76,.72,.65,.23,1.03,.23,.75-.08,1.05-.23,.55-.39,.75-.72,.35-.75,.45-1.26,.15-1.13,.15-1.84v-2.48Z"/><path class="e" d="M303.31,439.74h-8.38v-1.17l4.19-4.66c.39-.43,.71-.81,.96-1.13s.46-.63,.61-.9c.15-.27,.25-.53,.31-.77,.06-.24,.09-.48,.09-.72,0-.32-.05-.61-.15-.89-.1-.28-.24-.52-.43-.72s-.42-.37-.69-.49c-.28-.12-.59-.18-.95-.18-.43,0-.81,.06-1.13,.19s-.58,.31-.8,.54-.37,.5-.47,.82c-.11,.32-.16,.67-.16,1.06h-1.63c0-.54,.09-1.05,.27-1.53s.44-.9,.79-1.26,.79-.64,1.31-.85,1.12-.31,1.81-.31c.6,0,1.14,.08,1.62,.25s.88,.4,1.21,.7,.58,.66,.76,1.08,.26,.89,.26,1.4c0,.38-.06,.75-.19,1.13s-.3,.76-.52,1.14c-.22,.38-.47,.75-.76,1.12-.29,.37-.6,.74-.92,1.09l-3.44,3.73h6.42v1.33Z"/><path class="e" d="M313.06,434.29c0,1.05-.09,1.93-.28,2.65-.19,.72-.46,1.3-.8,1.74-.35,.44-.77,.76-1.27,.95s-1.05,.29-1.67,.29-1.17-.1-1.67-.29-.92-.51-1.27-.95c-.35-.44-.62-1.02-.82-1.74-.19-.72-.29-1.6-.29-2.65v-1.95c0-1.05,.1-1.93,.29-2.64s.46-1.28,.81-1.71,.78-.74,1.27-.93,1.05-.28,1.67-.28,1.18,.09,1.68,.28,.92,.5,1.27,.93,.62,1,.81,1.71,.28,1.59,.28,2.64v1.95Zm-1.63-2.22c0-.72-.05-1.33-.15-1.84s-.26-.91-.46-1.23-.46-.54-.76-.68-.65-.21-1.04-.21-.73,.07-1.03,.21-.55,.37-.76,.68-.36,.72-.46,1.23-.16,1.12-.16,1.84v2.48c0,.71,.05,1.33,.16,1.84s.26,.93,.47,1.26,.46,.57,.76,.72,.65,.23,1.03,.23,.75-.08,1.05-.23,.55-.39,.75-.72,.35-.75,.45-1.26,.15-1.13,.15-1.84v-2.48Z"/></g><g><path class="e" d="M409.47,439.74h-8.38v-1.17l4.19-4.66c.39-.43,.71-.81,.96-1.13,.25-.33,.46-.63,.61-.9,.15-.27,.25-.53,.31-.77,.06-.24,.09-.48,.09-.72,0-.32-.05-.61-.15-.89-.1-.28-.24-.52-.43-.72s-.42-.37-.69-.49c-.28-.12-.59-.18-.95-.18-.43,0-.81,.06-1.13,.19-.32,.13-.58,.31-.79,.54s-.37,.5-.47,.82c-.11,.32-.16,.67-.16,1.06h-1.63c0-.54,.09-1.05,.27-1.53,.18-.48,.44-.9,.79-1.26s.79-.64,1.31-.85,1.12-.31,1.81-.31c.6,0,1.14,.08,1.62,.25,.48,.16,.88,.4,1.21,.7,.33,.3,.58,.66,.76,1.08s.26,.89,.26,1.4c0,.38-.06,.75-.19,1.13s-.3,.76-.52,1.14c-.22,.38-.47,.75-.76,1.12-.29,.37-.6,.74-.92,1.09l-3.44,3.73h6.42v1.33Z"/><path class="e" d="M419.22,434.29c0,1.05-.09,1.93-.28,2.65-.19,.72-.46,1.3-.8,1.74-.35,.44-.77,.76-1.27,.95-.49,.19-1.05,.29-1.67,.29s-1.17-.1-1.67-.29-.92-.51-1.27-.95c-.35-.44-.62-1.02-.82-1.74-.19-.72-.29-1.6-.29-2.65v-1.95c0-1.05,.09-1.93,.29-2.64,.19-.71,.46-1.28,.81-1.71s.78-.74,1.27-.93c.5-.19,1.05-.28,1.67-.28s1.18,.09,1.68,.28,.92,.5,1.27,.93,.62,1,.81,1.71,.28,1.59,.28,2.64v1.95Zm-1.63-2.22c0-.72-.05-1.33-.15-1.84-.1-.5-.26-.91-.46-1.23s-.46-.54-.76-.68c-.3-.14-.65-.21-1.04-.21s-.73,.07-1.03,.21c-.3,.14-.55,.37-.76,.68-.2,.31-.36,.72-.46,1.23s-.16,1.12-.16,1.84v2.48c0,.71,.05,1.33,.16,1.84s.26,.93,.47,1.26c.21,.33,.46,.57,.76,.72,.3,.15,.65,.23,1.03,.23s.75-.08,1.05-.23,.55-.39,.75-.72c.2-.33,.35-.75,.45-1.26s.15-1.13,.15-1.84v-2.48Z"/><path class="e" d="M429.68,439.74h-8.38v-1.17l4.19-4.66c.39-.43,.71-.81,.96-1.13,.25-.33,.46-.63,.61-.9,.15-.27,.25-.53,.31-.77,.06-.24,.09-.48,.09-.72,0-.32-.05-.61-.15-.89-.1-.28-.24-.52-.43-.72s-.42-.37-.69-.49c-.28-.12-.59-.18-.95-.18-.43,0-.81,.06-1.13,.19-.32,.13-.58,.31-.79,.54s-.37,.5-.47,.82c-.11,.32-.16,.67-.16,1.06h-1.63c0-.54,.09-1.05,.27-1.53,.18-.48,.44-.9,.79-1.26s.79-.64,1.31-.85,1.12-.31,1.81-.31c.6,0,1.14,.08,1.62,.25,.48,.16,.88,.4,1.21,.7,.33,.3,.58,.66,.76,1.08s.26,.89,.26,1.4c0,.38-.06,.75-.19,1.13s-.3,.76-.52,1.14c-.22,.38-.47,.75-.76,1.12-.29,.37-.6,.74-.92,1.09l-3.44,3.73h6.42v1.33Z"/><path class="e" d="M436.75,439.74h-1.63v-10.84l-3.28,1.2v-1.48l4.66-1.75h.25v12.86Z"/></g><g><path class="e" d="M535.84,439.74h-8.38v-1.17l4.19-4.66c.39-.43,.71-.81,.96-1.13s.46-.63,.61-.9c.15-.27,.25-.53,.31-.77,.06-.24,.09-.48,.09-.72,0-.32-.05-.61-.15-.89-.1-.28-.24-.52-.43-.72s-.42-.37-.69-.49c-.28-.12-.59-.18-.95-.18-.43,0-.81,.06-1.13,.19s-.58,.31-.79,.54-.37,.5-.47,.82c-.11,.32-.16,.67-.16,1.06h-1.63c0-.54,.09-1.05,.27-1.53s.44-.9,.8-1.26,.79-.64,1.31-.85,1.12-.31,1.81-.31c.6,0,1.14,.08,1.62,.25s.88,.4,1.21,.7,.58,.66,.76,1.08,.26,.89,.26,1.4c0,.38-.06,.75-.19,1.13s-.3,.76-.52,1.14c-.22,.38-.47,.75-.76,1.12-.29,.37-.6,.74-.92,1.09l-3.44,3.73h6.42v1.33Z"/><path class="e" d="M545.58,434.29c0,1.05-.09,1.93-.28,2.65-.19,.72-.46,1.3-.8,1.74-.35,.44-.77,.76-1.27,.95s-1.05,.29-1.67,.29-1.17-.1-1.67-.29-.92-.51-1.27-.95c-.35-.44-.62-1.02-.82-1.74-.19-.72-.29-1.6-.29-2.65v-1.95c0-1.05,.09-1.93,.29-2.64s.46-1.28,.81-1.71,.77-.74,1.27-.93,1.05-.28,1.67-.28,1.18,.09,1.68,.28,.92,.5,1.27,.93,.62,1,.81,1.71,.28,1.59,.28,2.64v1.95Zm-1.63-2.22c0-.72-.05-1.33-.15-1.84s-.26-.91-.46-1.23-.46-.54-.76-.68-.65-.21-1.04-.21-.73,.07-1.03,.21-.55,.37-.76,.68-.36,.72-.46,1.23-.16,1.12-.16,1.84v2.48c0,.71,.05,1.33,.16,1.84s.26,.93,.47,1.26,.46,.57,.76,.72,.65,.23,1.03,.23,.75-.08,1.05-.23,.55-.39,.75-.72,.35-.75,.45-1.26,.15-1.13,.15-1.84v-2.48Z"/><path class="e" d="M556.05,439.74h-8.38v-1.17l4.19-4.66c.39-.43,.71-.81,.96-1.13s.46-.63,.61-.9c.15-.27,.25-.53,.31-.77,.06-.24,.09-.48,.09-.72,0-.32-.05-.61-.15-.89-.1-.28-.24-.52-.43-.72s-.42-.37-.69-.49c-.28-.12-.59-.18-.95-.18-.43,0-.81,.06-1.13,.19s-.58,.31-.79,.54-.37,.5-.47,.82c-.11,.32-.16,.67-.16,1.06h-1.63c0-.54,.09-1.05,.27-1.53s.44-.9,.8-1.26,.79-.64,1.31-.85,1.12-.31,1.81-.31c.6,0,1.14,.08,1.62,.25s.88,.4,1.21,.7,.58,.66,.76,1.08,.26,.89,.26,1.4c0,.38-.06,.75-.19,1.13s-.3,.76-.52,1.14c-.22,.38-.47,.75-.76,1.12-.29,.37-.6,.74-.92,1.09l-3.44,3.73h6.42v1.33Z"/><path class="e" d="M566.16,439.74h-8.38v-1.17l4.19-4.66c.39-.43,.71-.81,.96-1.13s.46-.63,.61-.9c.15-.27,.25-.53,.31-.77,.06-.24,.09-.48,.09-.72,0-.32-.05-.61-.15-.89-.1-.28-.24-.52-.43-.72s-.42-.37-.69-.49c-.28-.12-.59-.18-.95-.18-.43,0-.81,.06-1.13,.19s-.58,.31-.79,.54-.37,.5-.47,.82c-.11,.32-.16,.67-.16,1.06h-1.63c0-.54,.09-1.05,.27-1.53s.44-.9,.8-1.26,.79-.64,1.31-.85,1.12-.31,1.81-.31c.6,0,1.14,.08,1.62,.25s.88,.4,1.21,.7,.58,.66,.76,1.08,.26,.89,.26,1.4c0,.38-.06,.75-.19,1.13s-.3,.76-.52,1.14c-.22,.38-.47,.75-.76,1.12-.29,.37-.6,.74-.92,1.09l-3.44,3.73h6.42v1.33Z"/></g><g><path class="e" d="M662.21,439.74h-8.38v-1.17l4.19-4.66c.39-.43,.71-.81,.96-1.13s.46-.63,.61-.9c.15-.27,.25-.53,.31-.77,.06-.24,.09-.48,.09-.72,0-.32-.05-.61-.15-.89-.1-.28-.24-.52-.43-.72s-.42-.37-.69-.49c-.28-.12-.59-.18-.95-.18-.43,0-.81,.06-1.13,.19s-.58,.31-.79,.54-.37,.5-.47,.82c-.11,.32-.16,.67-.16,1.06h-1.63c0-.54,.09-1.05,.27-1.53s.44-.9,.8-1.26,.79-.64,1.31-.85,1.12-.31,1.81-.31c.6,0,1.14,.08,1.62,.25s.88,.4,1.21,.7,.58,.66,.76,1.08,.26,.89,.26,1.4c0,.38-.06,.75-.19,1.13s-.3,.76-.52,1.14c-.22,.38-.47,.75-.76,1.12-.29,.37-.6,.74-.92,1.09l-3.44,3.73h6.42v1.33Z"/><path class="e" d="M671.95,434.29c0,1.05-.09,1.93-.28,2.65-.19,.72-.46,1.3-.8,1.74-.35,.44-.77,.76-1.27,.95s-1.05,.29-1.67,.29-1.17-.1-1.67-.29-.92-.51-1.27-.95c-.35-.44-.62-1.02-.82-1.74-.19-.72-.29-1.6-.29-2.65v-1.95c0-1.05,.09-1.93,.29-2.64s.46-1.28,.81-1.71,.77-.74,1.27-.93,1.05-.28,1.67-.28,1.18,.09,1.68,.28,.92,.5,1.27,.93,.62,1,.81,1.71,.28,1.59,.28,2.64v1.95Zm-1.63-2.22c0-.72-.05-1.33-.15-1.84s-.26-.91-.46-1.23-.46-.54-.76-.68-.65-.21-1.04-.21-.73,.07-1.03,.21-.55,.37-.76,.68-.36,.72-.46,1.23-.16,1.12-.16,1.84v2.48c0,.71,.05,1.33,.16,1.84s.26,.93,.47,1.26,.46,.57,.76,.72,.65,.23,1.03,.23,.75-.08,1.05-.23,.55-.39,.75-.72,.35-.75,.45-1.26,.15-1.13,.15-1.84v-2.48Z"/><path class="e" d="M682.42,439.74h-8.38v-1.17l4.19-4.66c.39-.43,.71-.81,.96-1.13s.46-.63,.61-.9c.15-.27,.25-.53,.31-.77,.06-.24,.09-.48,.09-.72,0-.32-.05-.61-.15-.89-.1-.28-.24-.52-.43-.72s-.42-.37-.69-.49c-.28-.12-.59-.18-.95-.18-.43,0-.81,.06-1.13,.19s-.58,.31-.79,.54-.37,.5-.47,.82c-.11,.32-.16,.67-.16,1.06h-1.63c0-.54,.09-1.05,.27-1.53s.44-.9,.8-1.26,.79-.64,1.31-.85,1.12-.31,1.81-.31c.6,0,1.14,.08,1.62,.25s.88,.4,1.21,.7,.58,.66,.76,1.08,.26,.89,.26,1.4c0,.38-.06,.75-.19,1.13s-.3,.76-.52,1.14c-.22,.38-.47,.75-.76,1.12-.29,.37-.6,.74-.92,1.09l-3.44,3.73h6.42v1.33Z"/><path class="e" d="M686.51,432.55h1.16c.42,0,.79-.06,1.11-.17s.58-.26,.79-.46c.21-.2,.37-.43,.47-.69s.16-.56,.16-.88c0-.73-.18-1.29-.55-1.67s-.93-.58-1.69-.58c-.35,0-.66,.05-.95,.15s-.53,.25-.73,.44-.36,.42-.47,.69c-.11,.27-.17,.58-.17,.91h-1.63c0-.49,.09-.95,.28-1.38s.45-.8,.8-1.12,.76-.57,1.24-.76c.48-.19,1.02-.28,1.61-.28s1.11,.08,1.58,.23c.47,.16,.88,.38,1.22,.69,.34,.3,.6,.68,.79,1.13s.28,.98,.28,1.57c0,.24-.04,.49-.12,.76s-.2,.52-.36,.77-.37,.49-.62,.71c-.25,.22-.56,.4-.91,.55,.42,.13,.77,.31,1.06,.53,.28,.22,.51,.46,.68,.73s.29,.55,.36,.85,.11,.59,.11,.88c0,.6-.1,1.13-.31,1.6-.21,.46-.49,.86-.85,1.17s-.79,.56-1.28,.73c-.49,.17-1.03,.25-1.61,.25s-1.08-.08-1.57-.23c-.49-.16-.92-.38-1.29-.69s-.66-.67-.88-1.12c-.21-.44-.32-.95-.32-1.52h1.63c0,.33,.06,.64,.17,.91,.11,.27,.27,.51,.48,.7s.47,.35,.76,.45,.64,.16,1.01,.16,.71-.05,1.01-.15c.3-.1,.55-.24,.76-.44s.37-.45,.48-.75,.17-.65,.17-1.05-.06-.74-.19-1.04-.31-.53-.55-.72-.52-.33-.86-.43-.71-.14-1.12-.14h-1.16v-1.33Z"/></g><g><path class="e" d="M45.53,239.55l.65-6.38h6.56v1.5h-5.18l-.39,3.49c.23-.13,.52-.26,.88-.38,.36-.12,.78-.18,1.25-.18,.59,0,1.12,.1,1.59,.3,.47,.2,.87,.49,1.2,.86s.58,.82,.76,1.35,.26,1.12,.26,1.77c0,.62-.08,1.18-.25,1.7-.17,.52-.42,.97-.75,1.34-.33,.38-.75,.67-1.26,.89-.51,.21-1.1,.32-1.79,.32-.52,0-1-.07-1.46-.21-.46-.14-.87-.36-1.23-.66s-.65-.66-.88-1.11-.37-.97-.42-1.56h1.54c.1,.73,.36,1.29,.78,1.66s.98,.56,1.67,.56c.39,0,.73-.07,1.03-.2s.55-.33,.76-.58c.21-.25,.37-.56,.47-.92,.11-.36,.16-.76,.16-1.21,0-.4-.06-.77-.17-1.12s-.28-.65-.49-.9c-.22-.25-.49-.46-.8-.6-.32-.15-.68-.22-1.09-.22-.28,0-.51,.02-.71,.06s-.38,.09-.54,.16-.3,.16-.43,.26c-.13,.1-.27,.21-.42,.34l-1.3-.33Z"/><path class="e" d="M62.91,240.51c0,1.05-.09,1.93-.28,2.65-.19,.72-.46,1.3-.8,1.74-.35,.44-.77,.76-1.27,.95-.49,.19-1.05,.29-1.67,.29s-1.17-.1-1.67-.29-.92-.51-1.27-.95c-.35-.44-.62-1.02-.82-1.74-.19-.72-.29-1.6-.29-2.65v-1.95c0-1.05,.09-1.93,.29-2.64,.19-.71,.46-1.28,.81-1.71s.78-.74,1.27-.93c.5-.19,1.05-.28,1.67-.28s1.18,.09,1.68,.28,.92,.5,1.27,.93,.62,1,.81,1.71,.28,1.59,.28,2.64v1.95Zm-1.63-2.22c0-.72-.05-1.33-.15-1.84-.1-.5-.26-.91-.46-1.23s-.46-.54-.76-.68c-.3-.14-.65-.21-1.04-.21s-.73,.07-1.03,.21c-.3,.14-.55,.37-.76,.68-.2,.31-.36,.72-.46,1.23s-.16,1.12-.16,1.84v2.48c0,.71,.05,1.33,.16,1.84s.26,.93,.47,1.26c.21,.33,.46,.57,.76,.72,.3,.15,.65,.23,1.03,.23s.75-.08,1.05-.23,.55-.39,.75-.72c.2-.33,.35-.75,.45-1.26s.15-1.13,.15-1.84v-2.48Z"/><path class="e" d="M67.82,241.57l-1.02,1.06v3.34h-1.63v-13.5h1.63v8.17l.87-1.05,2.96-3.13h1.98l-3.7,3.97,4.13,5.54h-1.91l-3.31-4.4Z"/></g><g><path class="e" d="M67.91,409.74c0,1.05-.09,1.93-.28,2.65-.19,.72-.46,1.3-.8,1.74-.35,.44-.77,.76-1.27,.95s-1.05,.29-1.67,.29-1.17-.1-1.67-.29-.92-.51-1.27-.95c-.35-.44-.62-1.02-.82-1.74-.19-.72-.29-1.6-.29-2.65v-1.95c0-1.05,.09-1.93,.29-2.64s.46-1.28,.81-1.71,.78-.74,1.27-.93,1.05-.28,1.67-.28,1.18,.09,1.68,.28,.92,.5,1.27,.93,.62,1,.81,1.71,.28,1.59,.28,2.64v1.95Zm-1.62-2.22c0-.72-.05-1.33-.15-1.84s-.26-.91-.46-1.23-.46-.54-.76-.68-.65-.21-1.04-.21-.73,.07-1.03,.21-.55,.37-.76,.68-.36,.72-.46,1.23-.16,1.12-.16,1.84v2.48c0,.71,.05,1.33,.16,1.84s.26,.93,.47,1.26,.46,.57,.76,.72,.65,.23,1.03,.23,.75-.08,1.05-.23,.55-.39,.75-.72,.35-.75,.45-1.26,.15-1.13,.15-1.84v-2.48Z"/><path class="e" d="M72.82,410.8l-1.02,1.06v3.34h-1.62v-13.5h1.62v8.17l.87-1.05,2.96-3.13h1.98l-3.7,3.97,4.13,5.54h-1.91l-3.31-4.4Z"/></g><line class="g" x1="96.43" y1="59.01" x2="742.76" y2="59.01"/><g><path d="M766.55,68.03h-2.82v-10.88l-3.37,1.04v-2.29l5.89-2.11h.3v14.24Z"/><path d="M780.74,62.15c0,1.07-.12,1.98-.35,2.75s-.56,1.39-.98,1.89-.92,.86-1.51,1.09-1.24,.35-1.96,.35-1.37-.12-1.96-.35-1.09-.59-1.52-1.09-.75-1.12-.99-1.89-.35-1.68-.35-2.75v-2.47c0-1.07,.12-1.98,.35-2.75s.56-1.39,.98-1.88,.93-.85,1.51-1.08,1.24-.35,1.95-.35,1.37,.12,1.96,.35,1.09,.59,1.52,1.08,.75,1.12,.99,1.88,.35,1.68,.35,2.75v2.47Zm-2.82-2.87c0-.63-.04-1.16-.13-1.59s-.22-.78-.39-1.04-.38-.45-.63-.57-.53-.18-.84-.18-.59,.06-.83,.18-.45,.31-.62,.57-.3,.61-.39,1.04-.13,.96-.13,1.59v3.24c0,.64,.04,1.17,.14,1.61s.22,.79,.39,1.06,.38,.46,.62,.58,.53,.18,.84,.18,.59-.06,.84-.18,.45-.31,.62-.58,.29-.62,.38-1.06,.13-.97,.13-1.61v-3.24Z"/><path d="M792.21,62.15c0,1.07-.12,1.98-.35,2.75s-.56,1.39-.98,1.89-.92,.86-1.51,1.09-1.24,.35-1.96,.35-1.37-.12-1.96-.35-1.09-.59-1.52-1.09-.75-1.12-.99-1.89-.35-1.68-.35-2.75v-2.47c0-1.07,.12-1.98,.35-2.75s.56-1.39,.98-1.88,.93-.85,1.51-1.08,1.24-.35,1.95-.35,1.37,.12,1.96,.35,1.09,.59,1.52,1.08,.75,1.12,.99,1.88,.35,1.68,.35,2.75v2.47Zm-2.82-2.87c0-.63-.04-1.16-.13-1.59s-.22-.78-.39-1.04-.38-.45-.63-.57-.53-.18-.84-.18-.59,.06-.83,.18-.45,.31-.62,.57-.3,.61-.39,1.04-.13,.96-.13,1.59v3.24c0,.64,.04,1.17,.14,1.61s.22,.79,.39,1.06,.38,.46,.62,.58,.53,.18,.84,.18,.59-.06,.84-.18,.45-.31,.62-.58,.29-.62,.38-1.06,.13-.97,.13-1.61v-3.24Z"/><path d="M803.69,62.15c0,1.07-.12,1.98-.35,2.75s-.56,1.39-.98,1.89-.92,.86-1.51,1.09-1.24,.35-1.96,.35-1.37-.12-1.96-.35-1.09-.59-1.52-1.09-.75-1.12-.99-1.89-.35-1.68-.35-2.75v-2.47c0-1.07,.12-1.98,.35-2.75s.56-1.39,.98-1.88,.93-.85,1.51-1.08,1.24-.35,1.95-.35,1.37,.12,1.96,.35,1.09,.59,1.52,1.08,.75,1.12,.99,1.88,.35,1.68,.35,2.75v2.47Zm-2.82-2.87c0-.63-.04-1.16-.13-1.59s-.22-.78-.39-1.04-.38-.45-.63-.57-.53-.18-.84-.18-.59,.06-.83,.18-.45,.31-.62,.57-.3,.61-.39,1.04-.13,.96-.13,1.59v3.24c0,.64,.04,1.17,.14,1.61s.22,.79,.39,1.06,.38,.46,.62,.58,.53,.18,.84,.18,.59-.06,.84-.18,.45-.31,.62-.58,.29-.62,.38-1.06,.13-.97,.13-1.61v-3.24Z"/><path d="M811.57,51.84c-.56,1.52-1.28,3.06-2.06,4.5v13.22h-1.76v-10.42c-.48,.64-.94,1.24-1.44,1.78-.16-.46-.7-1.46-1.02-1.88,1.8-1.88,3.5-4.8,4.52-7.72l1.76,.52Zm-1.38,16.5c.6-.88,1.24-2.26,1.6-3.3l1.44,.64c-.4,1.04-.94,2.5-1.56,3.44l-1.48-.78Zm6.16-15.26c-.14-.5-.38-1.12-.62-1.6l1.72-.3c.32,.56,.64,1.34,.8,1.9h4.98v1.4h-3.26l1.28,.32c-.26,.48-.5,.92-.76,1.36h3.36v1.46h-13.2v-1.46h3.32c-.14-.42-.38-.96-.6-1.38l1.38-.3h-3.22v-1.4h4.82Zm6,11.04h-5.34c.82,.56,1.72,1.28,2.2,1.8l-1.18,1.02c-.56-.64-1.74-1.6-2.66-2.28l.68-.54h-3.8v-5.58h10.1v5.58Zm-3.46,3.94c.58,0,.7-.16,.76-1.42,.36,.26,1.04,.5,1.5,.6-.2,1.84-.66,2.3-2.08,2.3h-2.98c-1.96,0-2.4-.44-2.4-2v-2.46h1.7v2.46c0,.46,.12,.52,.9,.52h2.6Zm1.62-8.32h-6.5v1.06h6.5v-1.06Zm0,2.12h-6.5v1.08h6.5v-1.08Zm-1.8-5.7c.24-.56,.48-1.16,.64-1.68h-4.4c.3,.48,.6,1.1,.7,1.52l-.68,.16h3.74Zm3,8.66c.84,1.1,1.84,2.62,2.28,3.58l-1.54,.72c-.42-.98-1.36-2.56-2.18-3.7l1.44-.6Z"/><path d="M782.4,84.93c-.04,.46-.12,.9-.2,1.32h8.02v1.58h-8.44c-.94,2.6-3.06,4.28-8.34,5.14-.14-.5-.58-1.26-.94-1.68,4.38-.6,6.28-1.72,7.18-3.46h-6.38v-1.58h6.94c.08-.42,.16-.84,.22-1.32h-7.6v-1.64h7.82v-1.42h-6.04v-1.58h6.04v-1.36h-7.16v-1.64h4.02c-.32-.66-.86-1.48-1.34-2.08l1.62-.64c.68,.72,1.36,1.72,1.64,2.42l-.66,.3h4.88c.54-.8,1.22-1.92,1.56-2.72l1.98,.54c-.46,.74-1,1.54-1.48,2.18h4.08v1.64h-7.22v1.36h6.26v1.58h-6.26v1.42h8.06v1.64h-8.26Zm7.4,8.16c-1.78-1.16-5.36-2.82-8.04-3.86l.82-1.4c2.62,.94,6.26,2.52,8.08,3.62l-.86,1.64Z"/><path d="M808.16,90.91c.74,0,.86-.52,.94-3.48,.44,.34,1.24,.66,1.74,.8-.2,3.46-.68,4.44-2.54,4.44h-2.66c-1.98,0-2.5-.62-2.5-2.58v-6.68h-3.42c-.36,4.22-1.26,7.68-5.96,9.56-.2-.48-.74-1.14-1.16-1.5,4.18-1.56,4.86-4.54,5.14-8.06h-4.82v-1.8h17.58v1.8h-5.44v6.66c0,.72,.12,.84,.84,.84h2.26Zm.6-12.98h-14.08v-1.8h14.08v1.8Z"/></g></g></g></svg>