<?xml version="1.0" encoding="UTF-8"?><svg xmlns="http://www.w3.org/2000/svg" viewBox="0 0 44.03 44.03"><defs><style>.d{fill:#939ea7;}</style></defs><g id="a"/><g id="b"><g><path class="d" d="M29.66,42.02H14.37c-6.81,0-12.36-5.54-12.36-12.36V14.37C2.01,7.55,7.55,2.01,14.37,2.01h15.29c6.81,0,12.36,5.54,12.36,12.36v15.29c0,6.81-5.54,12.36-12.36,12.36ZM14.37,6.47c-4.36,0-7.9,3.54-7.9,7.9v15.29c0,4.36,3.54,7.9,7.9,7.9h15.29c4.36,0,7.9-3.54,7.9-7.9V14.37c0-4.36-3.54-7.9-7.9-7.9H14.37Z"/><path class="d" d="M22.01,32.24c-5.64,0-10.22-4.59-10.22-10.22s4.59-10.22,10.22-10.22,10.22,4.59,10.22,10.22-4.59,10.22-10.22,10.22Zm0-16.44c-3.42,0-6.21,2.79-6.21,6.21s2.79,6.21,6.21,6.21,6.21-2.79,6.21-6.21-2.79-6.21-6.21-6.21Z"/><path class="d" d="M34.48,11.19c0,.95-.77,1.73-1.73,1.73s-1.73-.77-1.73-1.73,.77-1.73,1.73-1.73,1.73,.77,1.73,1.73Z"/></g></g><g id="c"/></svg>