<?xml version="1.0" encoding="UTF-8"?><svg xmlns="http://www.w3.org/2000/svg" viewBox="0 0 44.03 44.03"><defs><style>.d{fill:#939ea7;}</style></defs><g id="a"/><g id="b"><path class="d" d="M21.46,1.5C10.14,1.5,.97,9.79,.97,20.02c0,6.93,4.22,12.97,10.46,16.15l-.09,.03-1.11,6.05,14.21-3.9c9.91-1.3,17.52-9.01,17.52-18.33C41.96,9.79,32.79,1.5,21.46,1.5Zm-7.29,23.27h-6.04V15.53h2.13v7.82h3.91v1.42Zm3.2,0h-2.13V15.53h2.13v9.24Zm9.24,0h-2.03l-1.99-3.48c-.55-1-1.16-2.14-1.62-3.24l-.08,.04c.06,1.23,.04,2.58,.04,4.1v2.58h-1.78V15.53h2.39l1.94,3.31c.55,.98,1.11,2.02,1.52,3.09h.04c-.14-1.07,.16-2.13,.16-3.52v-2.87h1.42v9.24Zm7.82,0h-5.69V15.53h5.69v1.78h-3.55v1.78h3.2v1.78h-3.2v2.49h3.55v1.42Z"/></g><g id="c"/></svg>