<?xml version="1.0" encoding="utf-8"?>
<!-- Generator: Adobe Illustrator 26.1.0, SVG Export Plug-In . SVG Version: 6.00 Build 0)  -->
<svg version="1.1" id="圖層_1" xmlns="http://www.w3.org/2000/svg" xmlns:xlink="http://www.w3.org/1999/xlink" x="0px" y="0px"
	 viewBox="0 0 79.4 79.4" style="enable-background:new 0 0 79.4 79.4;" xml:space="preserve">
<style type="text/css">
	.st0{fill:#FFFFFF;}
</style>
<g id="a">
</g>
<g id="b">
	<g>
		<g>
			<path class="st0" d="M50,19.1l-0.4,0.4c-3.1-3-9.3-0.6-11.5,0.4c-3.3-2.7-9-0.4-10.6,0.4L22.7,8.4c-2.8-7.2-12.8-3.3-10,3.9
				l13,32.9c-1.2-3.1-3.5-3.7-7-5c-8.4-3-11.5,6.5-4.5,9.5C29.8,56.5,37.4,65,41.5,75.6l29.9-11.8c0,0-1.9-6.2-1.9-12.6
				c0-6.8-1.7-16-4.3-22.5l-2.9-7.3C59.5,14,50,19.1,50,19.1L50,19.1z"/>
			<path d="M59.6,16.1c-3.9-1.4-8.5,0.6-10,1.3c-0.4-0.2-0.8-0.5-1.3-0.6c-3.9-1.4-8.5,0.6-10,1.2c-0.4-0.2-0.8-0.5-1.3-0.6
				c-3-1.1-6.5-0.2-8.6,0.7l-4-10.2c-1.8-4.6-6.1-5.8-9.5-4.4S9.2,8.4,11.1,13l10.5,26.7c-0.7-0.5-1.5-0.8-2.2-1.1
				c-5.3-1.9-9.1,0.5-10.3,3.5c-1.2,3.1-0.1,7.3,4.5,9.3c13.8,6,21.9,13.6,26.4,24.8l0.7,1.7l33.2-13.1l-0.5-1.6
				c0-0.1-1.9-6-1.8-12.1c0-7.1-1.7-16.4-4.4-23.2l-2.9-7.3C63.2,18.4,61.6,16.8,59.6,16.1z M63.6,29.3c2.5,6.3,4.2,15.3,4.2,21.9
				c0,4.7,0.9,9.2,1.5,11.6L42.5,73.3C37.6,62.1,29,54.3,15,48.2c-2.6-1.1-3.1-3.2-2.6-4.7c0.6-1.4,2.4-2.7,5.8-1.5
				c3,1.1,5.9,4,7,6.6l3.3-1.3l-14-35.6c-1-2.6,0.2-4.4,1.8-5.1S20,6.5,21,9.1l10.4,26.2l3.3-1.3l-5-12.7c1.7-0.7,4.2-1.3,6.1-0.6
				c1.1,0.4,1.8,1.2,2.4,2.5l3.2,8.2l3.3-1.3l-3.2-8.2c-0.2-0.4-0.3-0.8-0.6-1.2c1.7-0.7,4.3-1.3,6.2-0.7c1.1,0.4,1.8,1.2,2.4,2.5
				l3.2,8.2l3.3-1.3l-3.2-8.2c-0.2-0.4-0.4-0.8-0.6-1.2c1.7-0.7,4.2-1.3,6.2-0.7c1.1,0.4,1.9,1.2,2.4,2.5L63.6,29.3L63.6,29.3z"/>
		</g>
	</g>
</g>
<g id="c">
</g>
</svg>
