<?xml version="1.0" encoding="UTF-8"?><svg xmlns="http://www.w3.org/2000/svg" viewBox="0 0 117 117"><defs><style>.d{fill:#fff;}.e{fill:#ff0;stroke:#fff;stroke-miterlimit:10;stroke-width:2px;}</style></defs><g id="a"/><g id="b"><g><circle class="e" cx="58.5" cy="58.5" r="57.01"/><g><path class="d" d="M70.83,40.94l-.45,.41c-3.1-2.95-9.34-.56-11.55,.42-3.34-2.73-8.95-.42-10.61,.36l-4.7-11.89c-2.85-7.21-12.83-3.27-9.98,3.94l13,32.9c-1.23-3.11-3.52-3.71-6.96-4.95-8.37-3.02-11.5,6.45-4.52,9.48,15.57,6.75,23.13,15.22,27.3,25.77l29.94-11.83s-1.94-6.16-1.91-12.62c.04-6.81-1.7-15.97-4.28-22.52l-2.89-7.32c-2.89-7.32-12.39-2.16-12.39-2.16Z"/><path d="M80.41,37.89c-3.89-1.41-8.54,.56-9.98,1.26-.41-.25-.85-.47-1.31-.64-3.89-1.41-8.54,.56-9.98,1.25-.41-.25-.85-.47-1.31-.64-3.03-1.1-6.52-.15-8.6,.66l-4.03-10.19c-1.84-4.64-6.14-5.75-9.45-4.44s-5.7,5.06-3.86,9.7l10.55,26.7c-.73-.45-1.48-.82-2.24-1.09-5.35-1.93-9.09,.47-10.3,3.52-1.24,3.12-.1,7.31,4.46,9.29,13.82,5.99,21.94,13.64,26.35,24.78l.66,1.67,33.16-13.11-.5-1.59c-.02-.06-1.86-5.96-1.83-12.07,.04-7.1-1.73-16.42-4.42-23.2l-2.89-7.31c-.88-2.24-2.43-3.81-4.48-4.55Zm4.04,13.19c2.48,6.29,4.19,15.27,4.16,21.85-.03,4.72,.94,9.23,1.54,11.55l-26.81,10.6c-4.91-11.21-13.49-19-27.57-25.1-2.59-1.12-3.14-3.21-2.56-4.68,.57-1.44,2.42-2.68,5.76-1.48,2.99,1.08,5.94,4.02,6.95,6.58l3.33-1.32-14.05-35.56c-1.02-2.59,.19-4.4,1.85-5.06s3.78-.16,4.81,2.43l10.37,26.24,3.33-1.32-5.03-12.72c1.69-.65,4.21-1.3,6.08-.62,1.08,.39,1.85,1.21,2.36,2.5l3.22,8.16,3.33-1.32-3.22-8.16c-.16-.41-.35-.79-.56-1.15,1.69-.66,4.27-1.34,6.16-.65,1.08,.4,1.85,1.21,2.36,2.5l3.22,8.15,3.33-1.32-3.22-8.15c-.16-.41-.36-.79-.56-1.16,1.68-.66,4.25-1.34,6.16-.65,1.08,.39,1.86,1.21,2.37,2.5l2.89,7.32Z"/></g></g></g><g id="c"/></svg>